<?xml version="1.0" standalone="no"?>
<!DOCTYPE svg PUBLIC "-//W3C//DTD SVG 20010904//EN"
 "http://www.w3.org/TR/2001/REC-SVG-20010904/DTD/svg10.dtd">
<svg version="1.0" xmlns="http://www.w3.org/2000/svg"
 width="300.000000pt" height="300.000000pt" viewBox="0 0 300.000000 300.000000"
 preserveAspectRatio="xMidYMid meet">
<metadata>
Created by potrace 1.14, written by Peter Selinger 2001-2017
</metadata>
<g transform="translate(0.000000,300.000000) scale(0.100000,-0.100000)"
fill="#000000" stroke="none">
<path d="M1250 2873 c-78 -19 -85 -21 -85 -23 0 -1 -9 -3 -20 -5 -60 -11 -188
-91 -264 -165 -45 -43 -81 -84 -81 -91 0 -7 -3 -10 -6 -6 -13 13 -128 -158
-118 -175 3 -4 1 -8 -4 -8 -5 0 -22 -30 -37 -67 -22 -52 -76 -155 -89 -169 0
-1 7 -11 17 -21 9 -11 15 -22 13 -24 -4 -4 -12 -42 -22 -109 -7 -47 -7 -168 1
-205 3 -16 7 -43 9 -59 1 -16 17 -46 34 -67 18 -21 32 -43 32 -49 0 -7 24 -64
54 -129 30 -64 57 -127 61 -141 4 -14 27 -64 51 -111 23 -47 52 -125 63 -171
64 -263 144 -402 340 -595 36 -34 63 -65 60 -67 -2 -2 -13 -6 -23 -8 -24 -4
-76 -48 -76 -64 0 -12 -40 -95 -51 -104 -3 -3 -13 -21 -22 -40 -10 -19 -26
-50 -37 -69 l-19 -35 29 -20 c16 -12 30 -29 30 -38 0 -11 8 -18 20 -18 11 0
20 3 20 8 0 6 466 8 650 2 41 -1 89 1 106 5 20 4 34 3 38 -4 11 -17 36 -13 36
7 0 9 14 25 31 35 l31 17 -27 46 c-47 79 -105 195 -105 208 0 12 -54 66 -65
66 -3 0 -6 0 -7 1 -2 0 -11 2 -22 4 -33 6 -38 21 -14 37 41 28 95 85 163 172
17 21 35 44 40 50 20 23 95 156 102 181 1 6 16 55 32 110 17 55 33 116 36 135
3 19 28 84 55 145 28 60 50 116 50 123 0 6 5 12 11 12 5 0 8 4 4 9 -3 5 -1 12
4 16 6 3 8 12 4 20 -3 8 -1 15 5 15 6 0 20 25 33 55 12 30 27 55 33 55 5 0 6
3 3 6 -3 4 -1 16 5 28 7 11 13 29 15 39 5 29 23 58 32 52 33 -20 57 215 37
364 -4 30 -11 62 -17 72 -6 12 -6 19 0 19 26 0 20 44 -17 122 -101 212 -116
240 -162 298 -118 146 -307 282 -440 315 -81 21 -133 22 -200 6 -48 -11 -61
-11 -92 2 -45 19 -190 19 -268 0z"/>
<path d="M316 1195 c-76 -51 -140 -96 -143 -99 -3 -2 -1 -11 4 -20 7 -12 28
-1 117 59 61 41 111 73 112 72 2 -2 -28 -64 -66 -138 -44 -89 -65 -140 -60
-149 12 -19 301 175 293 196 -3 8 -9 14 -14 14 -9 0 -161 -101 -191 -128 -10
-8 -18 -12 -18 -8 0 4 29 65 64 136 52 104 62 132 53 144 -10 13 -31 2 -151
-79z"/>
<path d="M480 960 c-74 -50 -138 -94 -143 -99 -13 -13 102 -181 120 -174 18 7
13 19 -38 94 -22 33 -39 63 -36 65 2 2 26 20 52 39 l48 34 38 -60 c21 -32 43
-59 48 -59 25 0 20 25 -15 75 -42 61 -40 70 25 108 l30 18 47 -71 c31 -47 52
-69 62 -65 7 3 16 5 18 5 3 0 -23 41 -57 90 -34 50 -62 90 -63 90 -1 0 -62
-41 -136 -90z"/>
<path d="M723 736 l-42 -84 -68 -7 c-80 -8 -126 -15 -131 -19 -7 -7 29 -35 41
-31 7 2 40 6 75 10 l62 6 -35 -68 c-32 -61 -38 -103 -16 -103 5 0 27 38 50 84
23 47 49 87 59 90 9 3 44 8 77 11 78 8 97 14 92 28 -3 8 -29 11 -80 9 -43 -2
-77 -1 -77 2 0 3 14 31 30 62 28 51 33 94 12 94 -4 0 -26 -38 -49 -84z"/>
<path d="M2127 620 c-7 -3 -12 -12 -12 -20 0 -11 12 -16 40 -17 22 -1 48 -2
58 -2 15 -1 17 -17 17 -182 l0 -180 23 3 c22 3 22 4 22 181 l0 177 45 1 c25 1
51 2 59 3 17 1 24 36 8 37 -84 3 -251 3 -260 -1z"/>
<path d="M2551 619 c-41 -8 -78 -44 -85 -81 -8 -49 24 -89 105 -128 86 -41
106 -68 83 -112 -26 -50 -110 -54 -159 -8 l-22 20 -11 -24 c-9 -21 -8 -26 11
-39 108 -70 252 -8 232 101 -8 42 -31 63 -112 101 -34 17 -67 39 -73 51 -19
35 -5 67 35 80 39 13 63 8 96 -21 22 -19 38 -13 39 16 0 28 -86 55 -139 44z"/>
<path d="M910 590 c-15 -9 -7 -32 24 -75 14 -19 9 -24 -105 -100 -136 -90
-141 -95 -129 -115 7 -11 37 5 140 74 104 70 134 86 141 75 5 -8 17 -26 26
-41 19 -30 22 -32 40 -20 9 6 -7 37 -56 109 -50 74 -71 99 -81 93z"/>
</g>
</svg>
