<svg width="400" height="255" viewBox="0 0 400 255" fill="none" xmlns="http://www.w3.org/2000/svg">
  <style>
    @media ( prefers-color-scheme: light ) {
      rect { fill: gray; }
      path { fill: black; }
    }
  </style>
  <rect width="400" height="255" fill="#363636" />
  <path
    d="M108.568 103.182V141H104.136L83.5284 111.307H83.1591V141H78.5795V103.182H83.0114L103.693 132.949H104.062V103.182H108.568ZM128.664 141.591C126.103 141.591 123.856 140.982 121.924 139.763C120.003 138.544 118.501 136.839 117.418 134.648C116.347 132.456 115.811 129.896 115.811 126.966C115.811 124.011 116.347 121.432 117.418 119.229C118.501 117.025 120.003 115.314 121.924 114.095C123.856 112.876 126.103 112.267 128.664 112.267C131.224 112.267 133.465 112.876 135.385 114.095C137.318 115.314 138.82 117.025 139.891 119.229C140.974 121.432 141.516 124.011 141.516 126.966C141.516 129.896 140.974 132.456 139.891 134.648C138.82 136.839 137.318 138.544 135.385 139.763C133.465 140.982 131.224 141.591 128.664 141.591ZM128.664 137.676C130.609 137.676 132.209 137.178 133.465 136.18C134.721 135.183 135.65 133.872 136.253 132.247C136.856 130.622 137.158 128.862 137.158 126.966C137.158 125.07 136.856 123.304 136.253 121.666C135.65 120.029 134.721 118.705 133.465 117.696C132.209 116.687 130.609 116.182 128.664 116.182C126.719 116.182 125.118 116.687 123.863 117.696C122.607 118.705 121.677 120.029 121.074 121.666C120.471 123.304 120.169 125.07 120.169 126.966C120.169 128.862 120.471 130.622 121.074 132.247C121.677 133.872 122.607 135.183 123.863 136.18C125.118 137.178 126.719 137.676 128.664 137.676ZM167.964 103.182V141H163.384V103.182H167.964ZM176.555 141V112.636H180.765V117.068H181.135C181.725 115.554 182.68 114.378 183.997 113.541C185.314 112.692 186.896 112.267 188.743 112.267C190.614 112.267 192.171 112.692 193.414 113.541C194.67 114.378 195.649 115.554 196.35 117.068H196.646C197.372 115.603 198.462 114.44 199.914 113.578C201.367 112.704 203.109 112.267 205.14 112.267C207.676 112.267 209.751 113.061 211.363 114.649C212.976 116.225 213.782 118.681 213.782 122.017V141H209.424V122.017C209.424 119.924 208.852 118.429 207.707 117.53C206.562 116.631 205.214 116.182 203.663 116.182C201.669 116.182 200.124 116.785 199.028 117.991C197.932 119.186 197.385 120.7 197.385 122.534V141H192.953V121.574C192.953 119.961 192.43 118.662 191.383 117.678C190.337 116.68 188.989 116.182 187.339 116.182C186.207 116.182 185.148 116.483 184.163 117.087C183.19 117.69 182.403 118.527 181.799 119.598C181.208 120.657 180.913 121.882 180.913 123.273V141H176.555ZM230.097 141.665C228.3 141.665 226.668 141.326 225.203 140.649C223.739 139.96 222.575 138.969 221.713 137.676C220.852 136.371 220.421 134.795 220.421 132.949C220.421 131.324 220.741 130.007 221.381 128.997C222.021 127.975 222.877 127.175 223.948 126.597C225.019 126.018 226.201 125.587 227.493 125.304C228.798 125.009 230.109 124.775 231.426 124.602C233.15 124.381 234.547 124.214 235.618 124.104C236.702 123.981 237.489 123.777 237.982 123.494C238.487 123.211 238.739 122.719 238.739 122.017V121.869C238.739 120.047 238.24 118.632 237.243 117.622C236.258 116.613 234.763 116.108 232.756 116.108C230.676 116.108 229.044 116.563 227.863 117.474C226.681 118.385 225.85 119.358 225.37 120.392L221.233 118.915C221.972 117.191 222.957 115.849 224.188 114.889C225.431 113.917 226.785 113.24 228.25 112.858C229.728 112.464 231.18 112.267 232.608 112.267C233.519 112.267 234.566 112.378 235.748 112.599C236.942 112.809 238.093 113.246 239.201 113.911C240.321 114.575 241.25 115.579 241.989 116.92C242.728 118.262 243.097 120.06 243.097 122.312V141H238.739V137.159H238.517C238.222 137.775 237.73 138.433 237.04 139.135C236.351 139.837 235.434 140.434 234.289 140.926C233.144 141.419 231.747 141.665 230.097 141.665ZM230.762 137.75C232.485 137.75 233.938 137.411 235.12 136.734C236.314 136.057 237.212 135.183 237.816 134.112C238.431 133.041 238.739 131.915 238.739 130.733V126.744C238.554 126.966 238.148 127.169 237.52 127.354C236.905 127.526 236.191 127.68 235.378 127.815C234.578 127.938 233.796 128.049 233.033 128.148C232.282 128.234 231.673 128.308 231.205 128.369C230.072 128.517 229.014 128.757 228.029 129.089C227.056 129.41 226.268 129.896 225.665 130.548C225.074 131.188 224.779 132.062 224.779 133.17C224.779 134.685 225.339 135.83 226.459 136.605C227.592 137.368 229.026 137.75 230.762 137.75ZM262.5 152.227C260.395 152.227 258.585 151.956 257.071 151.415C255.557 150.885 254.295 150.184 253.286 149.31C252.288 148.448 251.494 147.525 250.903 146.54L254.375 144.102C254.769 144.619 255.268 145.21 255.871 145.875C256.474 146.552 257.299 147.137 258.345 147.629C259.404 148.134 260.789 148.386 262.5 148.386C264.79 148.386 266.679 147.832 268.169 146.724C269.659 145.616 270.403 143.881 270.403 141.517V135.756H270.034C269.714 136.273 269.259 136.913 268.668 137.676C268.089 138.427 267.252 139.098 266.156 139.689C265.073 140.268 263.608 140.557 261.761 140.557C259.472 140.557 257.416 140.015 255.594 138.932C253.784 137.848 252.35 136.273 251.291 134.205C250.245 132.136 249.722 129.625 249.722 126.67C249.722 123.765 250.232 121.235 251.254 119.081C252.276 116.914 253.698 115.24 255.52 114.058C257.342 112.864 259.447 112.267 261.835 112.267C263.682 112.267 265.147 112.575 266.23 113.19C267.326 113.794 268.163 114.483 268.741 115.259C269.332 116.022 269.788 116.65 270.108 117.142H270.551V112.636H274.761V141.812C274.761 144.25 274.207 146.232 273.099 147.759C272.004 149.297 270.527 150.424 268.668 151.138C266.821 151.864 264.765 152.227 262.5 152.227ZM262.352 136.642C264.1 136.642 265.578 136.242 266.784 135.442C267.991 134.642 268.908 133.491 269.536 131.989C270.163 130.487 270.477 128.689 270.477 126.597C270.477 124.553 270.17 122.75 269.554 121.186C268.938 119.623 268.027 118.398 266.821 117.511C265.615 116.625 264.125 116.182 262.352 116.182C260.506 116.182 258.967 116.65 257.736 117.585C256.517 118.521 255.6 119.777 254.984 121.352C254.381 122.928 254.08 124.676 254.08 126.597C254.08 128.566 254.387 130.308 255.003 131.822C255.631 133.324 256.554 134.506 257.773 135.368C259.004 136.217 260.53 136.642 262.352 136.642ZM294.631 141.591C291.898 141.591 289.54 140.988 287.558 139.781C285.589 138.562 284.068 136.864 282.997 134.685C281.938 132.493 281.409 129.945 281.409 127.04C281.409 124.134 281.938 121.574 282.997 119.358C284.068 117.13 285.558 115.394 287.466 114.151C289.386 112.895 291.627 112.267 294.188 112.267C295.665 112.267 297.124 112.513 298.564 113.006C300.004 113.498 301.315 114.298 302.497 115.406C303.679 116.502 304.621 117.955 305.322 119.764C306.024 121.574 306.375 123.802 306.375 126.449V128.295H284.511V124.528H301.943C301.943 122.928 301.623 121.5 300.983 120.244C300.355 118.989 299.456 117.998 298.287 117.271C297.13 116.545 295.763 116.182 294.188 116.182C292.452 116.182 290.95 116.613 289.682 117.474C288.426 118.324 287.46 119.432 286.783 120.798C286.106 122.165 285.767 123.63 285.767 125.193V127.705C285.767 129.847 286.136 131.662 286.875 133.152C287.626 134.629 288.666 135.756 289.996 136.531C291.325 137.295 292.87 137.676 294.631 137.676C295.776 137.676 296.81 137.516 297.733 137.196C298.669 136.864 299.475 136.371 300.152 135.719C300.829 135.054 301.352 134.229 301.722 133.244L305.932 134.426C305.489 135.854 304.744 137.11 303.697 138.193C302.651 139.264 301.358 140.101 299.82 140.705C298.281 141.295 296.551 141.591 294.631 141.591Z"
    fill="white" />
</svg>